<svg xmlns="http://www.w3.org/2000/svg" xmlns:svg="http://www.w3.org/2000/svg" xmlns:xlink="http://www.w3.org/1999/xlink" id="svg2" width="148.819" height="148.819" version="1.1"><defs id="defs4"><linearGradient id="linearGradient3926"><stop style="stop-color:#ffc7c7;stop-opacity:1" id="stop3928" offset="0"/><stop id="stop3930" offset="1" style="stop-color:#ff3f3f;stop-opacity:.49803922"/></linearGradient><linearGradient id="linearGradient3920"><stop style="stop-color:#ffc6c6;stop-opacity:1" id="stop3922" offset="0"/><stop id="stop3924" offset="1" style="stop-color:#ff3f3f;stop-opacity:.49803922"/></linearGradient><linearGradient id="linearGradient3816"><stop id="stop3818" offset="0" style="stop-color:#ff9696;stop-opacity:1"/><stop style="stop-color:#ff3f3f;stop-opacity:.49803922" id="stop3820" offset="1"/></linearGradient><linearGradient id="linearGradient3687"><stop style="stop-color:#ff3f3f;stop-opacity:1" id="stop3689" offset="0"/><stop id="stop3695" offset=".633" style="stop-color:#ff3f3f;stop-opacity:.49803922"/><stop style="stop-color:#ff3f3f;stop-opacity:0" id="stop3691" offset="1"/></linearGradient><linearGradient id="linearGradient3665"><stop style="stop-color:#c0a8a8;stop-opacity:1" id="stop3667" offset="0"/><stop id="stop3675" offset=".212" style="stop-color:#e44444;stop-opacity:.74901961"/><stop id="stop3673" offset=".515" style="stop-color:#e44444;stop-opacity:.49803922"/><stop style="stop-color:#e44444;stop-opacity:0" id="stop3669" offset="1"/></linearGradient><radialGradient id="radialGradient3693-8" cx="139.83" cy="462.635" r="14.496" fx="139.83" fy="462.635" gradientTransform="matrix(1,0,0,0.87804866,0,56.418971)" gradientUnits="userSpaceOnUse" xlink:href="#linearGradient3687-2"/><linearGradient id="linearGradient3687-2"><stop style="stop-color:#ff3f3f;stop-opacity:1" id="stop3689-7" offset="0"/><stop id="stop3695-7" offset=".633" style="stop-color:#ff3f3f;stop-opacity:.49803922"/><stop style="stop-color:#ff3f3f;stop-opacity:0" id="stop3691-1" offset="1"/></linearGradient><radialGradient id="radialGradient3785-4" cx="139.83" cy="462.635" r="9.181" fx="139.83" fy="462.635" gradientTransform="matrix(-1.4129499,-0.6322035,0.69731413,-1.2766977,14.801675,1141.6816)" gradientUnits="userSpaceOnUse" xlink:href="#linearGradient3816-9"/><linearGradient id="linearGradient3816-9"><stop id="stop3818-4" offset="0" style="stop-color:#ff9696;stop-opacity:1"/><stop style="stop-color:#ff3f3f;stop-opacity:.49803922" id="stop3820-6" offset="1"/></linearGradient><filter id="filter3761-2-0" width="2.391" height="2.584" x="-.696" y="-.792" color-interpolation-filters="sRGB"><feGaussianBlur id="feGaussianBlur3763-6-3" stdDeviation="8.402"/></filter><radialGradient id="radialGradient3741" cx="139.83" cy="462.635" r="9.181" fx="139.83" fy="462.635" gradientTransform="matrix(-1.4129499,-0.6322035,0.69731413,-1.2766977,14.801675,1141.6816)" gradientUnits="userSpaceOnUse" xlink:href="#linearGradient3920"/><radialGradient id="radialGradient3743" cx="139.83" cy="462.635" r="9.181" fx="139.83" fy="462.635" gradientTransform="matrix(-1.4129499,-0.6322035,0.69731413,-1.2766977,14.801675,1141.6816)" gradientUnits="userSpaceOnUse" xlink:href="#linearGradient3926"/><radialGradient id="radialGradient2914" cx="139.83" cy="462.635" r="9.181" fx="139.83" fy="462.635" gradientTransform="matrix(-1.4129499,-0.6322035,0.69731413,-1.2766977,14.801675,1141.6816)" gradientUnits="userSpaceOnUse" xlink:href="#linearGradient3920"/><radialGradient id="radialGradient2916" cx="139.83" cy="462.635" r="9.181" fx="139.83" fy="462.635" gradientTransform="matrix(-1.4129499,-0.6322035,0.69731413,-1.2766977,14.801675,1141.6816)" gradientUnits="userSpaceOnUse" xlink:href="#linearGradient3926"/><radialGradient id="radialGradient2916-8" cx="139.83" cy="462.635" r="9.181" fx="139.83" fy="462.635" gradientTransform="matrix(-1.4129499,-0.6322035,0.69731413,-1.2766977,14.801675,1141.6816)" gradientUnits="userSpaceOnUse" xlink:href="#linearGradient3926-8"/><linearGradient id="linearGradient3926-8"><stop style="stop-color:#ffc7c7;stop-opacity:1" id="stop3928-5" offset="0"/><stop id="stop3930-0" offset="1" style="stop-color:#ff3f3f;stop-opacity:.49803922"/></linearGradient><radialGradient id="radialGradient2956" cx="139.83" cy="462.635" r="9.181" fx="139.83" fy="462.635" gradientTransform="matrix(-1.4129499,-0.6322035,0.69731413,-1.2766977,14.801675,1141.6816)" gradientUnits="userSpaceOnUse" xlink:href="#linearGradient3926-8"/><radialGradient id="radialGradient2916-3" cx="139.83" cy="462.635" r="9.181" fx="139.83" fy="462.635" gradientTransform="matrix(-1.4129499,-0.6322035,0.69731413,-1.2766977,14.801675,1141.6816)" gradientUnits="userSpaceOnUse" xlink:href="#linearGradient3926-0"/><linearGradient id="linearGradient3926-0"><stop style="stop-color:#ffc7c7;stop-opacity:1" id="stop3928-4" offset="0"/><stop id="stop3930-4" offset="1" style="stop-color:#ff3f3f;stop-opacity:.49803922"/></linearGradient><filter id="filter3761-2-0-4" width="2.391" height="2.584" x="-.696" y="-.792" color-interpolation-filters="sRGB"><feGaussianBlur id="feGaussianBlur3763-6-3-4" stdDeviation="8.402"/></filter><radialGradient id="radialGradient3000" cx="139.83" cy="462.635" r="9.181" fx="139.83" fy="462.635" gradientTransform="matrix(-1.4129499,-0.6322035,0.69731413,-1.2766977,14.801675,1141.6816)" gradientUnits="userSpaceOnUse" xlink:href="#linearGradient3926-0"/><radialGradient id="radialGradient3041" cx="139.83" cy="462.635" r="9.181" fx="139.83" fy="462.635" gradientTransform="matrix(-1.4129499,-0.6322035,0.69731413,-1.2766977,14.801675,1141.6816)" gradientUnits="userSpaceOnUse" xlink:href="#linearGradient3926"/><radialGradient id="radialGradient3043" cx="139.83" cy="462.635" r="9.181" fx="139.83" fy="462.635" gradientTransform="matrix(-1.4129499,-0.6322035,0.69731413,-1.2766977,14.801675,1141.6816)" gradientUnits="userSpaceOnUse" xlink:href="#linearGradient3926-0"/><radialGradient id="radialGradient5295" cx="139.83" cy="462.635" r="9.181" fx="139.83" fy="462.635" gradientTransform="matrix(-1.4129499,-0.6322035,0.69731413,-1.2766977,14.801675,1141.6816)" gradientUnits="userSpaceOnUse" spreadMethod="pad" xlink:href="#linearGradient3926-0"/></defs><metadata id="metadata7"/><g id="layer3" transform="translate(-108.9,-300.951)" style="display:inline"><g id="g3739"><path id="path2816" d="m 246,514.86218 a 82,78.5 0 1 1 -164,0 82,78.5 0 1 1 164,0 z" transform="matrix(0.6756246,0,0,0.56655781,72.308745,94.286559)" style="fill:#ffdfc6;fill-opacity:1;stroke:#a62929;stroke-opacity:1;display:inline"/><path id="path3590" d="m 199,541.36218 a 30,28 0 1 1 -60,0 30,28 0 1 1 60,0 z" transform="matrix(0.64374506,0,0,0.57936285,74.73599,91.977849)" style="fill:#ff7c7c;fill-opacity:.49019608;stroke:#a72929;stroke-opacity:1;display:inline"/><path id="path3592" d="m 163,547.36218 a 5,5 0 1 1 -10,0 5,5 0 1 1 10,0 z" transform="matrix(0.64374506,0,0,0.57936285,75.701608,88.791356)" style="fill:#a72929;fill-opacity:1;stroke:#a62929;stroke-opacity:1"/><path id="path3592-1" d="m 163,547.36218 a 5,5 0 1 1 -10,0 5,5 0 1 1 10,0 z" transform="matrix(0.64374506,0,0,0.57936285,86.967146,88.791356)" style="fill:#a72929;fill-opacity:1;stroke:#a62929;stroke-opacity:1"/><path id="path3616-7-4" d="m 140,517.86218 a 8,7.5 0 1 1 -16,0 8,7.5 0 1 1 16,0 z" transform="matrix(-0.52655067,0,0,0.62832072,240.00469,58.766237)" style="fill:#000;fill-opacity:1;stroke:#000;stroke-opacity:1"/><path id="path3616-7-4-7" d="m 140,517.86218 a 8,7.5 0 1 1 -16,0 8,7.5 0 1 1 16,0 z" transform="matrix(0.52655067,0,0,0.62832072,126.20772,58.766237)" style="fill:#000;fill-opacity:1;stroke:#000;stroke-opacity:1"/><path id="path2844" d="M 74.0625 21.375 C 48.98812 21.375 31.21864 28.30071 19.59375 38.8125 C 8.6954063 48.667303 3.2454259 61.586585 2.1875 74.71875 C 1.8196547 77.966016 2.0247362 81.304886 2.6875 84.40625 C 3.37446 87.62085 5.16675 90.79642 7.6875 92.90625 C 11.36737 95.98624 21.1875 97.90625 21.1875 97.90625 C 21.1875 97.90625 16.55031 85.29007 20.6875 73.40625 C 22.67988 67.68326 30.1875 57.90625 30.1875 57.90625 C 30.1875 57.90625 20.26956 55.85912 15.6875 57.40625 C 12.080973 58.623992 8.6722082 61.044659 6.28125 64.09375 C 8.787969 55.345366 13.550281 47.111394 21 40.375 C 32.17169 30.27302 49.37609 23.5 74.0625 23.5 C 98.7489 23.5 116.10936 30.2702 127.40625 40.375 C 134.96658 47.137529 139.79861 55.404565 142.34375 64.1875 C 139.95032 61.092768 136.48779 58.636658 132.84375 57.40625 C 128.26169 55.85912 118.34375 57.90625 118.34375 57.90625 C 118.34375 57.90625 125.85137 67.68326 127.84375 73.40625 C 131.98094 85.29007 127.34375 97.90625 127.34375 97.90625 C 127.34375 97.90625 137.16388 95.98624 140.84375 92.90625 C 143.3645 90.79642 145.15679 87.62085 145.84375 84.40625 C 146.32734 82.143331 146.57832 79.765194 146.53125 77.375 L 146.59375 77.375 C 146.08426 63.34846 140.52998 49.32146 128.78125 38.8125 C 117.03252 28.30354 99.13688 21.375 74.0625 21.375 z" transform="translate(108.9,300.951)" style="fill:#000;fill-opacity:1;stroke:#a62929;stroke-width:.35433071;stroke-linecap:butt;stroke-linejoin:miter;stroke-opacity:1;stroke-miterlimit:4;stroke-dasharray:none"/><path id="path3677-0-6" d="m 154.32606,462.63513 a 14.495689,12.727922 0 1 1 -28.99138,0 14.495689,12.727922 0 1 1 28.99138,0 z" transform="matrix(0.82686908,0,0,0.91357009,36.392555,-23.787437)" style="fill:url(#radialGradient3041);fill-opacity:1;stroke:none;display:inline;filter:url(#filter3761-2-0)"/><path id="path2887" d="m 195.95698,393.6922 a 3.6681166,3.4471457 0 0 1 -4.49357,3.35873" transform="matrix(0.79566022,-0.6057432,-0.6057432,-0.79566022,281.12088,804.0778)" style="fill:none;stroke:#000;stroke-width:1px;stroke-linecap:butt;stroke-linejoin:miter;stroke-opacity:1"/><path id="path2887-1" d="m 195.95698,393.6922 a 3.6681166,3.4471457 0 0 1 -4.49357,3.35873" transform="matrix(-0.79566022,-0.6057432,0.6057432,-0.79566022,84.33689,804.0778)" style="fill:none;stroke:#000;stroke-width:1px;stroke-linecap:butt;stroke-linejoin:miter;stroke-opacity:1"/><path id="path3677-0-6-7" d="m 154.32606,462.63513 a 14.495689,12.727922 0 1 1 -28.99138,0 14.495689,12.727922 0 1 1 28.99138,0 z" transform="matrix(0.82686908,0,0,0.91357009,98.107176,-23.846873)" style="fill:url(#radialGradient5295);fill-opacity:1;fill-rule:nonzero;stroke:none;display:inline;filter:url(#filter3761-2-0-4)"/></g></g></svg>